<?xml version="1.0" encoding="UTF-8"?>
<svg width="55px" height="55px" viewBox="0 0 55 55" version="1.1" xmlns="http://www.w3.org/2000/svg" xmlns:xlink="http://www.w3.org/1999/xlink">
    <!-- Generator: Sketch 52.2 (67145) - http://www.bohemiancoding.com/sketch -->
    <title>DeviceProvisioning</title>
    <desc>Created with Sketch.</desc>
    <g id="Page-1" stroke="none" stroke-width="1" fill="none" fill-rule="evenodd">
        <g id="文档中心卡片" transform="translate(-1432.000000, -403.000000)" stroke="#0A6EFA" stroke-width="1.96428571">
            <g id="Group-Copy-2" transform="translate(1389.000000, 350.000000)">
                <g id="DeviceProvisioning" transform="translate(43.000000, 53.000000)">
                    <path d="M52.2069821,12.7678571 L2.76198214,12.7678571 L7.98698214,2.67142857 C8.721625,1.61267857 9.92769643,0.982142857 11.2162679,0.982142857 L43.784125,0.982142857 C45.0726964,0.982142857 46.2768036,1.61267857 47.0114464,2.67142857 L52.2069821,12.7678571 Z" id="Stroke-1" stroke-linecap="round"></path>
                    <path d="M50.0892857,54.0178571 L4.91071429,54.0178571 C2.74214286,54.0178571 0.982142857,52.2578571 0.982142857,50.0892857 L0.982142857,16.6964286 C0.982142857,14.5278571 2.74214286,12.7678571 4.91071429,12.7678571 L50.0892857,12.7678571 C52.2578571,12.7678571 54.0178571,14.5278571 54.0178571,16.6964286 L54.0178571,50.0892857 C54.0178571,52.2578571 52.2578571,54.0178571 50.0892857,54.0178571 Z" id="Stroke-3" stroke-linecap="round"></path>
                    <path d="M31.1254821,29.7500893 C30.6599464,29.2884821 30.1119107,28.9250893 29.481375,28.6579464 C28.848875,28.3927679 28.1790536,28.2611607 27.4679821,28.2611607 C26.758875,28.2611607 26.0910179,28.3927679 25.4683393,28.6579464 C24.8456607,28.9250893 24.2995893,29.2884821 23.8360179,29.7500893 C23.3704821,30.2116964 23.0031607,30.751875 22.7340536,31.370625 C22.4669107,31.9874107 22.331375,32.649375 22.331375,33.3525893 C22.331375,34.0577679 22.4669107,34.7177679 22.7340536,35.3365179 C23.0031607,35.9552679 23.3704821,36.499375 23.8360179,36.966875 C24.2995893,37.4383036 24.8456607,37.805625 25.4683393,38.0708036 C26.0910179,38.3379464 26.758875,38.4695536 27.4679821,38.4695536 C28.1790536,38.4695536 28.848875,38.3379464 29.481375,38.0708036 C30.1119107,37.805625 30.6599464,37.4383036 31.1254821,36.966875 C31.5910179,36.499375 31.9583393,35.9552679 32.2274464,35.3365179 C32.4945893,34.7177679 32.6281607,34.0577679 32.6281607,33.3525893 C32.6281607,32.649375 32.4945893,31.9874107 32.2274464,31.370625 C31.9583393,30.751875 31.5910179,30.2116964 31.1254821,29.7500893 Z M38.3324464,35.0261607 C38.6781607,35.495625 39.1279821,35.8315179 39.6858393,36.0338393 C39.8174464,36.1084821 39.9274464,36.1811607 40.0217321,36.2558036 C40.2260179,36.4208036 40.3654821,36.6329464 40.440125,36.8922321 C40.4774464,37.1141964 40.467625,37.3813393 40.412625,37.6936607 C40.3556607,38.0079464 40.2633393,38.3261607 40.1317321,38.6483036 C40.0020893,38.9704464 39.8449464,39.2611607 39.6583393,39.5204464 C39.4736964,39.7777679 39.2674464,39.9624107 39.0454821,40.0724107 C38.8215536,40.184375 38.625125,40.239375 38.4581607,40.239375 C38.2911964,40.239375 38.1045893,40.2020536 37.9003036,40.129375 C37.7136964,40.074375 37.4819107,40.0213393 37.2029821,39.978125 C36.9240536,39.9309821 36.6411964,39.9211607 36.3524464,39.9486607 C36.0636964,39.978125 35.7749464,40.0370536 35.4881607,40.129375 C35.1994107,40.2216964 34.9519107,40.3788393 34.747625,40.5988393 C34.3017321,41.0604464 34.0404821,41.5849107 33.9678036,42.1761607 C33.8931607,42.7654464 33.977625,43.3291964 34.2192321,43.8634821 C34.403875,44.2327679 34.376375,44.6020536 34.1347679,44.969375 C34.0228036,45.1166964 33.8460179,45.2699107 33.6044107,45.4250893 C33.3628036,45.5841964 33.097625,45.725625 32.808875,45.8552679 C32.520125,45.9849107 32.2195893,46.0850893 31.9033393,46.1597321 C31.585125,46.234375 31.3081607,46.2697321 31.0645893,46.2697321 C30.897625,46.2697321 30.7404821,46.2049107 30.5911964,46.0772321 C30.4419107,45.9475893 30.3397679,45.808125 30.2847679,45.6627679 C30.2847679,45.6627679 29.7033393,44.5961607 29.2103036,44.1816964 C28.7172679,43.7672321 28.1456607,43.5590179 27.4935179,43.5590179 C26.8629821,43.5590179 26.2894107,43.7672321 25.7786964,44.1816964 C25.2679821,44.5961607 24.9085179,45.0813393 24.7042321,45.6333036 C24.6119107,45.8552679 24.4724464,46.0163393 24.2858393,46.1184821 C24.0992321,46.2186607 23.8949464,46.2697321 23.6729821,46.2697321 C23.4117321,46.2697321 23.1190536,46.2245536 22.7929821,46.1322321 C22.4610179,46.0379464 22.1349464,45.9220536 21.8167321,45.7865179 C21.4906607,45.6470536 21.1979821,45.4859821 20.9367321,45.3013393 C20.6774464,45.1186607 20.4829821,44.9320536 20.351375,44.749375 C20.2590536,44.6197321 20.2079821,44.4684821 20.200125,44.2916964 C20.1903036,44.116875 20.2590536,43.8713393 20.4083393,43.5590179 C20.612625,43.1347321 20.6911964,42.6515179 20.6460179,42.1074107 C20.598875,41.5633036 20.3611964,41.0604464 19.9329821,40.5988393 C19.6736964,40.321875 19.3574464,40.143125 18.9842321,40.060625 C18.6129821,39.978125 18.2594107,39.9447321 17.9254821,39.9624107 C17.5345893,39.9800893 17.133875,40.0547321 16.7253036,40.184375 C16.4640536,40.2590179 16.2047679,40.239375 15.9435179,40.129375 C15.7392321,40.0547321 15.5486964,39.8838393 15.3719107,39.6166964 C15.195125,39.3495536 15.0379821,39.0549107 14.8985179,38.7327679 C14.7570893,38.4086607 14.6510179,38.0766964 14.576375,37.7349107 C14.5036964,37.3950893 14.4840536,37.1141964 14.521375,36.8922321 C14.576375,36.4875893 14.7629821,36.2283036 15.0792321,36.1183036 C15.6370893,35.8963393 16.1399464,35.5329464 16.5858393,35.0261607 C17.0317321,34.5174107 17.2556607,33.9516964 17.2556607,33.323125 C17.2556607,32.6788393 17.0317321,32.1150893 16.5858393,31.6358036 C16.1399464,31.1565179 15.6370893,30.806875 15.0792321,30.5849107 C14.9122679,30.5299107 14.7728036,30.3963393 14.6608393,30.1841964 C14.548875,29.9720536 14.493875,29.7540179 14.493875,29.5340179 C14.493875,29.294375 14.5311964,29.0272321 14.603875,28.730625 C14.6785179,28.4379464 14.7767321,28.1511607 14.8985179,27.8741964 C15.0183393,27.5972321 15.1578036,27.3438393 15.3169107,27.1140179 C15.4740536,26.8822321 15.6469107,26.7113393 15.8315536,26.6013393 C15.9808393,26.5090179 16.1242321,26.4716964 16.2656607,26.4913393 C16.4031607,26.5090179 16.556375,26.5463393 16.7253036,26.6013393 C17.2831607,26.8233036 17.8645893,26.8920536 18.4695893,26.8075893 C19.072625,26.7250893 19.608875,26.4638393 20.0724464,26.0199107 C20.296375,25.7999107 20.4594107,25.526875 20.5615536,25.2047321 C20.6636964,24.880625 20.7285179,24.5624107 20.7560179,24.2500893 C20.7835179,23.9377679 20.7835179,23.6509821 20.7560179,23.3916964 C20.7285179,23.134375 20.7049464,22.9497321 20.6872679,22.8377679 C20.6499464,22.7277679 20.6165536,22.598125 20.5890536,22.4527679 C20.5615536,22.3034821 20.5753036,22.1758036 20.6303036,22.0638393 C20.7422679,21.8065179 20.942625,21.580625 21.231375,21.3861607 C21.5181607,21.1936607 21.8304821,21.0325893 22.1644107,20.9029464 C22.5003036,20.7733036 22.8244107,20.6770536 23.142625,20.6122321 C23.458875,20.5474107 23.7083393,20.5159821 23.8949464,20.5159821 C24.1365536,20.5159821 24.3270893,20.5925893 24.4665536,20.7497321 C24.6060179,20.906875 24.7042321,21.0699107 24.7592321,21.2349107 C24.9635179,21.731875 25.2994107,22.1699107 25.7649464,22.5490179 C26.2285179,22.9261607 26.7785179,23.1166964 27.4090536,23.1166964 C28.0611964,23.1166964 28.6367321,22.9359821 29.1395893,22.5765179 C29.6424464,22.2170536 29.9960179,21.7613393 30.2003036,21.2074107 C30.2749464,21.0600893 30.3908393,20.906875 30.5499464,20.7497321 C30.7070893,20.5925893 30.870125,20.5159821 31.0370893,20.5159821 C31.296375,20.5159821 31.5811964,20.5513393 31.887625,20.6259821 C32.1940536,20.700625 32.4965536,20.8008036 32.795125,20.9304464 C33.0897679,21.058125 33.3667321,21.2250893 33.6181607,21.4274107 C33.867625,21.6316964 34.0699464,21.8516964 34.2172679,22.0933036 C34.3115536,22.240625 34.3390536,22.4016964 34.3017321,22.5765179 C34.2644107,22.7513393 34.2270893,22.8750893 34.1897679,22.9497321 C33.9481607,23.4840179 33.8735179,24.0477679 33.9658393,24.6370536 C34.060125,25.2263393 34.3292321,25.7429464 34.775125,26.186875 C35.2210179,26.6288393 35.7710179,26.874375 36.4211964,26.9195536 C37.0733393,26.9666964 37.676375,26.8586607 38.2361964,26.6013393 C38.3835179,26.5090179 38.5661964,26.4716964 38.7783393,26.4913393 C38.9924464,26.5090179 39.175125,26.5915179 39.3224464,26.7388393 C39.601375,26.998125 39.848875,27.3890179 40.0629821,27.9154464 C40.2770893,28.4399107 40.4204821,28.9722321 40.495125,29.5065179 C40.5324464,29.8188393 40.481375,30.064375 40.3419107,30.2391964 C40.2024464,30.4140179 40.0570893,30.5299107 39.9097679,30.5849107 C39.3322679,30.7872321 38.8392321,31.1427679 38.4306607,31.6495536 C38.0220893,32.1583036 37.8158393,32.7338393 37.8158393,33.3800893 C37.8178036,34.0066964 37.9886964,34.5547321 38.3324464,35.0261607 Z" id="Stroke-5"></path>
                </g>
            </g>
        </g>
    </g>
</svg>