<?xml version="1.0" encoding="UTF-8"?>
<svg width="55px" height="55px" viewBox="0 0 55 55" version="1.1" xmlns="http://www.w3.org/2000/svg" xmlns:xlink="http://www.w3.org/1999/xlink">
    <!-- Generator: Sketch 52.2 (67145) - http://www.bohemiancoding.com/sketch -->
    <title>DataExplorer</title>
    <desc>Created with Sketch.</desc>
    <defs>
        <polygon id="path-1" points="0.000392857143 0.000589285714 55 0.000589285714 55 55 0.000392857143 55"></polygon>
    </defs>
    <g id="Page-1" stroke="none" stroke-width="1" fill="none" fill-rule="evenodd">
        <g id="文档中心卡片" transform="translate(-942.000000, -1423.000000)">
            <g id="Group-Copy-8" transform="translate(899.000000, 1370.000000)">
                <g id="DataExplorer" transform="translate(43.000000, 53.000000)">
                    <mask id="mask-2" fill="white">
                        <use xlink:href="#path-1"></use>
                    </mask>
                    <g id="Clip-2"></g>
                    <path d="M49.907,42.7768393 C49.6830714,42.7768393 49.4650357,42.7493393 49.2528929,42.7041607 C48.5575357,42.5509464 47.9603929,42.1580893 47.5321786,41.619875 C47.1137857,41.097375 46.8525357,40.4432679 46.8525357,39.722375 C46.8525357,38.072375 48.1686071,36.7327321 49.8048571,36.6777321 C49.83825,36.6757679 49.8716429,36.6679107 49.907,36.6679107 C50.6003929,36.6679107 51.2309286,36.9075536 51.7455714,37.2964821 C52.4802143,37.8543393 52.9634286,38.7284464 52.9634286,39.722375 C52.9634286,41.4077321 51.5923571,42.7768393 49.907,42.7768393 Z M27.5003929,52.963625 C19.7552143,52.963625 12.8959286,49.168625 8.6295,43.3582679 C9.34842857,42.6570179 9.87485714,41.7593393 10.0830714,40.7418393 L44.9177143,40.7418393 C45.1259286,41.7593393 45.6523571,42.6570179 46.3712857,43.3582679 C42.1028929,49.168625 35.2455714,52.963625 27.5003929,52.963625 Z M5.74789286,42.7041607 C5.53575,42.7493393 5.31771429,42.7768393 5.09378571,42.7768393 C3.40842857,42.7768393 2.03735714,41.4077321 2.03735714,39.722375 C2.03735714,38.7284464 2.52057143,37.8543393 3.25521429,37.2964821 C3.76789286,36.9075536 4.40039286,36.6679107 5.09378571,36.6679107 C5.12717857,36.6679107 5.16057143,36.6757679 5.19592857,36.6777321 C6.83217857,36.7327321 8.14825,38.072375 8.14825,39.722375 C8.14825,40.4432679 7.887,41.097375 7.46860714,41.619875 C7.03842857,42.1580893 6.44128571,42.5509464 5.74789286,42.7041607 Z M22.6505714,6.62219643 C23.1416429,8.16023214 24.34575,9.376125 25.8759286,9.89469643 L9.49182143,37.2021964 C8.61182143,35.6739821 6.9795,34.6309464 5.09378571,34.6309464 C4.9445,34.6309464 4.80503571,34.6604107 4.65967857,34.6741607 C4.28646429,33.0182679 4.07432143,31.3034464 4.07432143,29.5375536 C4.07432143,18.2821964 12.05325,8.86344643 22.6505714,6.62219643 Z M24.5755714,4.25523214 C24.9428929,2.97844643 26.1077143,2.03755357 27.5003929,2.03755357 C28.8930714,2.03755357 30.0578929,2.97844643 30.4252143,4.25523214 C30.5018214,4.522375 30.5548571,4.79933929 30.5548571,5.09201786 C30.5548571,5.52023214 30.4664643,5.924875 30.3073571,6.296125 C29.8378929,7.382375 28.7575357,8.14844643 27.5003929,8.14844643 C26.24325,8.14844643 25.1609286,7.382375 24.6934286,6.296125 C24.5343214,5.924875 24.4439643,5.52023214 24.4439643,5.09201786 C24.4439643,4.79933929 24.4989643,4.522375 24.5755714,4.25523214 Z M44.0337857,38.704875 L10.9650357,38.704875 L27.5003929,11.1459464 L44.0337857,38.704875 Z M50.9264643,29.5375536 C50.9264643,31.3034464 50.7123571,33.0182679 50.3411071,34.6741607 C50.19575,34.6604107 50.0562857,34.6309464 49.907,34.6309464 C48.0212857,34.6309464 46.387,35.6739821 45.5089643,37.2021964 L29.1248571,9.89469643 C30.6530714,9.376125 31.8591429,8.16023214 32.3502143,6.62219643 C42.9475357,8.86344643 50.9264643,18.2821964 50.9264643,29.5375536 Z M52.2936071,35.2496964 C52.7178929,33.4091607 52.9634286,31.5038036 52.9634286,29.5375536 C52.9634286,17.2214821 44.1752143,6.92469643 32.54075,4.57933929 C32.2795,2.01398214 30.1325357,0.000589285714 27.5003929,0.000589285714 C24.86825,0.000589285714 22.7212857,2.01398214 22.4600357,4.57933929 C10.8255714,6.92469643 2.03735714,17.2214821 2.03735714,29.5375536 C2.03735714,31.5038036 2.28289286,33.4091607 2.70717857,35.2496964 C1.10432143,36.1080893 0.000392857143,37.7796964 0.000392857143,39.722375 C0.000392857143,42.5313036 2.28485714,44.8138036 5.09378571,44.8138036 C5.73807143,44.8138036 6.35092857,44.6900536 6.91860714,44.4680893 C11.5523571,50.8382679 19.0402143,55.0005893 27.5003929,55.0005893 C35.9586071,55.0005893 43.4464643,50.8382679 48.0802143,44.4680893 C48.6478929,44.6900536 49.2627143,44.8138036 49.907,44.8138036 C52.7159286,44.8138036 55.0003929,42.5313036 55.0003929,39.722375 C55.0003929,37.7796964 53.8945,36.1080893 52.2936071,35.2496964 Z" id="Fill-1" fill="#0A6EFA" mask="url(#mask-2)"></path>
                </g>
            </g>
        </g>
    </g>
</svg>