<?xml version="1.0" encoding="UTF-8"?>
<svg width="60px" height="57px" viewBox="0 0 60 57" version="1.1" xmlns="http://www.w3.org/2000/svg" xmlns:xlink="http://www.w3.org/1999/xlink">
    <!-- Generator: Sketch 52.2 (67145) - http://www.bohemiancoding.com/sketch -->
    <title>StreamComputing</title>
    <desc>Created with Sketch.</desc>
    <g id="Page-1" stroke="none" stroke-width="1" fill="none" fill-rule="evenodd">
        <g id="文档中心卡片" transform="translate(-449.000000, -913.000000)" stroke="#0A6EFA" stroke-width="2.29166667">
            <g id="Group-Copy-3" transform="translate(409.000000, 860.000000)">
                <g id="StreamComputing" transform="translate(40.000000, 53.000000)">
                    <path d="M8.07692308,5.72916667 C8.07692308,7.62895833 6.52846154,9.16666667 4.61538462,9.16666667 C2.70230769,9.16666667 1.15384615,7.62895833 1.15384615,5.72916667 C1.15384615,3.829375 2.70230769,2.29166667 4.61538462,2.29166667 C6.52846154,2.29166667 8.07692308,3.829375 8.07692308,5.72916667 Z" id="Stroke-1" stroke-linecap="round"></path>
                    <path d="M8.07692308,27.5 C8.07692308,29.3997917 6.52846154,30.9375 4.61538462,30.9375 C2.70230769,30.9375 1.15384615,29.3997917 1.15384615,27.5 C1.15384615,25.6002083 2.70230769,24.0625 4.61538462,24.0625 C6.52846154,24.0625 8.07692308,25.6002083 8.07692308,27.5 Z" id="Stroke-3" stroke-linecap="round"></path>
                    <path d="M8.07692308,51.5625 C8.07692308,53.4622917 6.52846154,55 4.61538462,55 C2.70230769,55 1.15384615,53.4622917 1.15384615,51.5625 C1.15384615,49.6627083 2.70230769,48.125 4.61538462,48.125 C6.52846154,48.125 8.07692308,49.6627083 8.07692308,51.5625 Z" id="Stroke-5" stroke-linecap="round"></path>
                    <path d="M6.92307692,5.72916667 L16.4746154,5.72916667 C16.4746154,5.72916667 26.3053846,5.72916667 26.3053846,21.0077083 C26.3053846,36.2839583 28.7630769,42.3958333 41.0515385,42.3958333 L60,42.3958333" id="Stroke-7"></path>
                    <path d="M8.07692308,27.5 L58.8461538,27.5" id="Stroke-9" stroke-linecap="round"></path>
                    <path d="M58.8461538,1.14583333 L58.8461538,49.4060417 C58.8461538,50.5977083 57.8746154,51.5625 56.6746154,51.5625 L8.07692308,51.5625" id="Stroke-11" stroke-linecap="round"></path>
                </g>
            </g>
        </g>
    </g>
</svg>