<?xml version="1.0" encoding="UTF-8"?>
<svg width="54px" height="55px" viewBox="0 0 54 55" version="1.1" xmlns="http://www.w3.org/2000/svg" xmlns:xlink="http://www.w3.org/1999/xlink">
    <!-- Generator: Sketch 52.2 (67145) - http://www.bohemiancoding.com/sketch -->
    <title>DataIntegration 2</title>
    <desc>Created with Sketch.</desc>
    <g id="Page-1" stroke="none" stroke-width="1" fill="none" fill-rule="evenodd">
        <g id="文档中心卡片" transform="translate(-1432.000000, -913.000000)" stroke="#0A6EFA" stroke-width="1.96428571">
            <g id="Group-Copy-5" transform="translate(1389.000000, 860.000000)">
                <g id="DataIntegration-2" transform="translate(43.000000, 53.000000)">
                    <path d="M10.7962963,5.89285714 C10.7962963,8.60553571 8.59974074,10.8035714 5.88888889,10.8035714 C3.17803704,10.8035714 0.981481481,8.60553571 0.981481481,5.89285714 C0.981481481,3.18017857 3.17803704,0.982142857 5.88888889,0.982142857 C8.59974074,0.982142857 10.7962963,3.18017857 10.7962963,5.89285714 Z" id="Stroke-1"></path>
                    <path d="M10.7962963,27.5 C10.7962963,30.2126786 8.59974074,32.4107143 5.88888889,32.4107143 C3.17803704,32.4107143 0.981481481,30.2126786 0.981481481,27.5 C0.981481481,24.7873214 3.17803704,22.5892857 5.88888889,22.5892857 C8.59974074,22.5892857 10.7962963,24.7873214 10.7962963,27.5 Z" id="Stroke-3"></path>
                    <path d="M10.7962963,49.1071429 C10.7962963,51.8198214 8.59974074,54.0178571 5.88888889,54.0178571 C3.17803704,54.0178571 0.981481481,51.8198214 0.981481481,49.1071429 C0.981481481,46.3944643 3.17803704,44.1964286 5.88888889,44.1964286 C8.59974074,44.1964286 10.7962963,46.3944643 10.7962963,49.1071429 Z" id="Stroke-5"></path>
                    <path d="M49.144937,54.0178571 L27.4110111,54.0178571 C25.2811963,54.0178571 23.5557519,52.29125 23.5557519,50.16 L23.5557519,4.84 C23.5557519,2.70875 25.2811963,0.982142857 27.4110111,0.982142857 L49.144937,0.982142857 C51.2727889,0.982142857 53.0001963,2.70875 53.0001963,4.84 L53.0001963,50.16 C53.0001963,52.29125 51.2727889,54.0178571 49.144937,54.0178571 Z" id="Stroke-7"></path>
                    <path d="M10.0525296,5.89285714 L13.5034185,5.89285714 C15.7922333,5.89285714 17.666863,7.76875 17.666863,10.0591071 L17.666863,44.9408929 C17.666863,47.23125 15.7922333,49.1071429 13.5034185,49.1071429 L10.0525296,49.1071429" id="Stroke-9"></path>
                    <path d="M11.7777778,27.5 L23.5555556,27.5" id="Stroke-11" stroke-linecap="round"></path>
                    <path d="M32.3888889,12.7678571 C30.7694444,12.7678571 29.4444444,11.4419643 29.4444444,9.82142857 C29.4444444,8.20089286 30.7694444,6.875 32.3888889,6.875 C34.0083333,6.875 35.3333333,8.20089286 35.3333333,9.82142857 C35.3333333,11.4419643 34.0083333,12.7678571 32.3888889,12.7678571 Z" id="Stroke-13" stroke-linecap="round"></path>
                    <path d="M44.1666667,12.7678571 C42.5472222,12.7678571 41.2222222,11.4419643 41.2222222,9.82142857 C41.2222222,8.20089286 42.5472222,6.875 44.1666667,6.875 C45.7861111,6.875 47.1111111,8.20089286 47.1111111,9.82142857 C47.1111111,11.4419643 45.7861111,12.7678571 44.1666667,12.7678571 Z" id="Stroke-15" stroke-linecap="round"></path>
                    <path d="M32.3888889,24.5535714 C30.7694444,24.5535714 29.4444444,23.2276786 29.4444444,21.6071429 C29.4444444,19.9866071 30.7694444,18.6607143 32.3888889,18.6607143 C34.0083333,18.6607143 35.3333333,19.9866071 35.3333333,21.6071429 C35.3333333,23.2276786 34.0083333,24.5535714 32.3888889,24.5535714 Z" id="Stroke-17" stroke-linecap="round"></path>
                    <path d="M44.1666667,24.5535714 C42.5472222,24.5535714 41.2222222,23.2276786 41.2222222,21.6071429 C41.2222222,19.9866071 42.5472222,18.6607143 44.1666667,18.6607143 C45.7861111,18.6607143 47.1111111,19.9866071 47.1111111,21.6071429 C47.1111111,23.2276786 45.7861111,24.5535714 44.1666667,24.5535714 Z" id="Stroke-19" stroke-linecap="round"></path>
                    <path d="M32.3888889,36.3392857 C30.7694444,36.3392857 29.4444444,35.0133929 29.4444444,33.3928571 C29.4444444,31.7723214 30.7694444,30.4464286 32.3888889,30.4464286 C34.0083333,30.4464286 35.3333333,31.7723214 35.3333333,33.3928571 C35.3333333,35.0133929 34.0083333,36.3392857 32.3888889,36.3392857 Z" id="Stroke-21" stroke-linecap="round"></path>
                    <path d="M44.1666667,36.3392857 C42.5472222,36.3392857 41.2222222,35.0133929 41.2222222,33.3928571 C41.2222222,31.7723214 42.5472222,30.4464286 44.1666667,30.4464286 C45.7861111,30.4464286 47.1111111,31.7723214 47.1111111,33.3928571 C47.1111111,35.0133929 45.7861111,36.3392857 44.1666667,36.3392857 Z" id="Stroke-23" stroke-linecap="round"></path>
                    <path d="M32.3888889,48.125 C30.7694444,48.125 29.4444444,46.7991071 29.4444444,45.1785714 C29.4444444,43.5580357 30.7694444,42.2321429 32.3888889,42.2321429 C34.0083333,42.2321429 35.3333333,43.5580357 35.3333333,45.1785714 C35.3333333,46.7991071 34.0083333,48.125 32.3888889,48.125 Z" id="Stroke-25" stroke-linecap="round"></path>
                    <path d="M44.1666667,48.125 C42.5472222,48.125 41.2222222,46.7991071 41.2222222,45.1785714 C41.2222222,43.5580357 42.5472222,42.2321429 44.1666667,42.2321429 C45.7861111,42.2321429 47.1111111,43.5580357 47.1111111,45.1785714 C47.1111111,46.7991071 45.7861111,48.125 44.1666667,48.125 Z" id="Stroke-27" stroke-linecap="round"></path>
                </g>
            </g>
        </g>
    </g>
</svg>