<?xml version="1.0" encoding="UTF-8"?>
<svg width="59px" height="56px" viewBox="0 0 59 56" version="1.1" xmlns="http://www.w3.org/2000/svg" xmlns:xlink="http://www.w3.org/1999/xlink">
    <!-- Generator: Sketch 52.2 (67145) - http://www.bohemiancoding.com/sketch -->
    <title>APIsAndSDKs</title>
    <desc>Created with Sketch.</desc>
    <g id="Page-1" stroke="none" stroke-width="1" fill="none" fill-rule="evenodd" stroke-linecap="round" stroke-linejoin="round">
        <g id="文档中心卡片" transform="translate(-450.000000, -1933.000000)" stroke="#0A6EFA" stroke-width="1.96428571">
            <g id="Group-Copy-9" transform="translate(409.000000, 1880.000000)">
                <g id="APIsAndSDKs" transform="translate(41.000000, 53.000000)">
                    <path d="M43.4202633,28.279625 L43.4202633,18.063375 C43.4202633,16.2562321 42.45463,14.5865893 40.8891633,13.6830179 L32.0312967,8.57783929 C30.46583,7.67426786 28.5345633,7.67426786 26.9690967,8.57783929 L18.11123,13.6830179 C16.5437967,14.5865893 15.58013,16.2562321 15.58013,18.063375 L15.58013,28.279625 C15.58013,30.0848036 16.5437967,31.7544464 18.11123,32.6580179 L26.9690967,37.7651607 C28.5345633,38.6687321 30.46583,38.6687321 32.0312967,37.7651607 L40.8891633,32.6580179 C42.45463,31.7544464 43.4202633,30.0848036 43.4202633,28.279625 Z" id="Stroke-1"></path>
                    <path d="M24.5833333,18.258625 L24.5833333,9.59808929 C24.5833333,8.06791071 23.7652,6.65166071 22.4377,5.88558929 L14.9289667,1.55630357 C13.6014667,0.790232143 11.9652,0.790232143 10.6377,1.55630357 L3.12896667,5.88558929 C1.80146667,6.65166071 0.983333333,8.06791071 0.983333333,9.59808929 L0.983333333,18.258625 C0.983333333,19.7888036 1.80146667,21.2050536 3.12896667,21.971125 L10.6377,26.3004107 C11.9652,27.0645179 13.6014667,27.0645179 14.9289667,26.3004107 L22.4377,21.971125 C23.7652,21.2050536 24.5833333,19.7888036 24.5833333,18.258625 Z" id="Stroke-3"></path>
                    <path d="M58.0166667,18.258625 L58.0166667,9.59808929 C58.0166667,8.06791071 57.1985333,6.65166071 55.8710333,5.88558929 L48.3623,1.55630357 C47.0348,0.790232143 45.3985333,0.790232143 44.0710333,1.55630357 L36.5623,5.88558929 C35.2348,6.65166071 34.4166667,8.06791071 34.4166667,9.59808929 L34.4166667,18.258625 C34.4166667,19.7888036 35.2348,21.2050536 36.5623,21.971125 L44.0710333,26.3004107 C45.3985333,27.0645179 47.0348,27.0645179 48.3623,26.3004107 L55.8710333,21.971125 C57.1985333,21.2050536 58.0166667,19.7888036 58.0166667,18.258625 Z" id="Stroke-5"></path>
                    <path d="M41.3,45.6973393 L41.3,37.0387679 C41.3,35.506625 40.4818667,34.0923393 39.1543667,33.3262679 L31.6456333,28.9950179 C30.3181333,28.2289464 28.6818667,28.2289464 27.3543667,28.9950179 L19.8456333,33.3262679 C18.5181333,34.0923393 17.7,35.506625 17.7,37.0387679 L17.7,45.6973393 C17.7,47.2275179 18.5181333,48.6437679 19.8456333,49.4098393 L27.3543667,53.739125 C28.6818667,54.5032321 30.3181333,54.5032321 31.6456333,53.739125 L39.1543667,49.4098393 C40.4818667,48.6437679 41.3,47.2275179 41.3,45.6973393 Z" id="Stroke-7"></path>
                </g>
            </g>
        </g>
    </g>
</svg>