<?xml version="1.0" encoding="UTF-8"?>
<svg width="55px" height="55px" viewBox="0 0 55 55" version="1.1" xmlns="http://www.w3.org/2000/svg" xmlns:xlink="http://www.w3.org/1999/xlink">
    <!-- Generator: Sketch 52.2 (67145) - http://www.bohemiancoding.com/sketch -->
    <title>BiReport</title>
    <desc>Created with Sketch.</desc>
    <g id="Page-1" stroke="none" stroke-width="1" fill="none" fill-rule="evenodd">
        <g id="文档中心卡片" transform="translate(-1432.000000, -1423.000000)" stroke="#0A6EFA" stroke-width="1.96428571">
            <g id="Group-Copy-6" transform="translate(1389.000000, 1370.000000)">
                <g id="BiReport" transform="translate(43.000000, 53.000000)">
                    <path d="M0.982142857,50.0892857 L0.982142857,14.7321429 L54.0178571,14.7321429 L54.0178571,50.0892857 C54.0178571,52.25 52.25,54.0178571 50.0892857,54.0178571 L4.91071429,54.0178571 C2.75,54.0178571 0.982142857,52.25 0.982142857,50.0892857 Z" id="Stroke-1"></path>
                    <path d="M0.982142857,20.625 L0.982142857,4.91071429 C0.982142857,2.75 2.75,0.982142857 4.91071429,0.982142857 L50.0892857,0.982142857 C52.25,0.982142857 54.0178571,2.75 54.0178571,4.91071429 L54.0178571,20.625" id="Stroke-3"></path>
                    <path d="M14.7321429,41.25 C14.7321429,42.8764286 13.4141071,44.1964286 11.7857143,44.1964286 C10.1573214,44.1964286 8.83928571,42.8764286 8.83928571,41.25 C8.83928571,39.6235714 10.1573214,38.3035714 11.7857143,38.3035714 C13.4141071,38.3035714 14.7321429,39.6235714 14.7321429,41.25 Z" id="Stroke-5" stroke-linecap="round"></path>
                    <path d="M24.5535714,29.4642857 C24.5535714,31.0907143 23.2355357,32.4107143 21.6071429,32.4107143 C19.97875,32.4107143 18.6607143,31.0907143 18.6607143,29.4642857 C18.6607143,27.8378571 19.97875,26.5178571 21.6071429,26.5178571 C23.2355357,26.5178571 24.5535714,27.8378571 24.5535714,29.4642857 Z" id="Stroke-7" stroke-linecap="round"></path>
                    <path d="M36.3392857,39.2857143 C36.3392857,40.9121429 35.02125,42.2321429 33.3928571,42.2321429 C31.7644643,42.2321429 30.4464286,40.9121429 30.4464286,39.2857143 C30.4464286,37.6592857 31.7644643,36.3392857 33.3928571,36.3392857 C35.02125,36.3392857 36.3392857,37.6592857 36.3392857,39.2857143 Z" id="Stroke-9" stroke-linecap="round"></path>
                    <path d="M46.1607143,25.5357143 C46.1607143,27.1621429 44.8426786,28.4821429 43.2142857,28.4821429 C41.5858929,28.4821429 40.2678571,27.1621429 40.2678571,25.5357143 C40.2678571,23.9092857 41.5858929,22.5892857 43.2142857,22.5892857 C44.8426786,22.5892857 46.1607143,23.9092857 46.1607143,25.5357143 Z" id="Stroke-11" stroke-linecap="round"></path>
                    <path d="M19.5200893,31.6128214 L14.485625,38.6724643" id="Stroke-13" stroke-linecap="round"></path>
                    <path d="M24.3080357,31.2445179 L31.06125,37.0764821" id="Stroke-15" stroke-linecap="round"></path>
                    <path d="M35.6641607,37.0146071 L41.6179107,28.4208571" id="Stroke-17" stroke-linecap="round"></path>
                    <path d="M16.6964286,7.85714286 L20.625,7.85714286" id="Stroke-19" stroke-linecap="round"></path>
                    <path d="M26.5178571,7.85714286 L30.4464286,7.85714286" id="Stroke-21" stroke-linecap="round"></path>
                    <path d="M10.8035714,7.85714286 C10.8035714,8.39928571 10.3635714,8.83928571 9.82142857,8.83928571 C9.27928571,8.83928571 8.83928571,8.39928571 8.83928571,7.85714286 C8.83928571,7.315 9.27928571,6.875 9.82142857,6.875 C10.3635714,6.875 10.8035714,7.315 10.8035714,7.85714286 Z" id="Stroke-23" stroke-linecap="round"></path>
                </g>
            </g>
        </g>
    </g>
</svg>