<?xml version="1.0" encoding="UTF-8"?>
<svg width="51px" height="55px" viewBox="0 0 51 55" version="1.1" xmlns="http://www.w3.org/2000/svg" xmlns:xlink="http://www.w3.org/1999/xlink">
    <!-- Generator: Sketch 52.2 (67145) - http://www.bohemiancoding.com/sketch -->
    <title>DevOps</title>
    <desc>Created with Sketch.</desc>
    <g id="Page-1" stroke="none" stroke-width="1" fill="none" fill-rule="evenodd">
        <g id="文档中心卡片" transform="translate(-453.000000, -403.000000)" fill="#0A6EFA">
            <g id="Group" transform="translate(409.000000, 350.000000)">
                <g id="DevOps" transform="translate(44.000000, 53.000000)">
                    <path d="M6.86538462,19.6428571 C4.16238462,19.6428571 1.96153846,21.8448214 1.96153846,24.5535714 L1.96153846,48.125 C1.96153846,50.83375 4.16238462,53.0357143 6.86538462,53.0357143 L44.1346154,53.0357143 C46.8376154,53.0357143 49.0384615,50.83375 49.0384615,48.125 L49.0384615,24.5535714 C49.0384615,21.8448214 46.8376154,19.6428571 44.1346154,19.6428571 L40.2115385,19.6428571 C39.6701538,19.6428571 39.2307692,19.2028571 39.2307692,18.6607143 L39.2307692,8.83928571 C39.2307692,5.04821429 36.1511538,1.96428571 32.3653846,1.96428571 L18.6346154,1.96428571 C14.8488462,1.96428571 11.7692308,5.04821429 11.7692308,8.83928571 L11.7692308,18.6607143 C11.7692308,19.2028571 11.3298462,19.6428571 10.7884615,19.6428571 L6.86538462,19.6428571 Z M44.1346154,55 L6.86538462,55 C3.07961538,55 0,51.9160714 0,48.125 L0,24.5535714 C0,20.7625 3.07961538,17.6785714 6.86538462,17.6785714 L9.80769231,17.6785714 L9.80769231,8.83928571 C9.80769231,3.96589286 13.7680385,0 18.6346154,0 L32.3653846,0 C37.2319615,0 41.1923077,3.96589286 41.1923077,8.83928571 L41.1923077,17.6785714 L44.1346154,17.6785714 C47.9203846,17.6785714 51,20.7625 51,24.5535714 L51,48.125 C51,51.9160714 47.9203846,55 44.1346154,55 Z" id="Fill-1"></path>
                    <path d="M16.6730769,17.6785714 L34.3269231,17.6785714 L34.3269231,9.82142857 C34.3269231,8.19696429 33.0068077,6.875 31.3846154,6.875 L19.6153846,6.875 C17.9931923,6.875 16.6730769,8.19696429 16.6730769,9.82142857 L16.6730769,17.6785714 Z M35.3076923,19.6428571 L15.6923077,19.6428571 C15.1509231,19.6428571 14.7115385,19.2028571 14.7115385,18.6607143 L14.7115385,9.82142857 C14.7115385,7.11267857 16.9123846,4.91071429 19.6153846,4.91071429 L31.3846154,4.91071429 C34.0876154,4.91071429 36.2884615,7.11267857 36.2884615,9.82142857 L36.2884615,18.6607143 C36.2884615,19.2028571 35.8490769,19.6428571 35.3076923,19.6428571 Z" id="Fill-3"></path>
                    <path d="M25.4970577,32.4107143 C23.3315192,32.4107143 21.5739808,34.1707143 21.5739808,36.3392857 C21.5739808,38.5078571 23.3315192,40.2678571 25.4970577,40.2678571 C27.6625962,40.2678571 29.4201346,38.5078571 29.4201346,36.3392857 C29.4240577,35.29625 29.0121346,34.2944643 28.2765577,33.5558929 C27.5390192,32.8192857 26.5386346,32.4067857 25.4970577,32.4107143 M25.4970577,42.0141071 C22.3664423,42.0141071 19.8301731,39.4742857 19.8301731,36.3392857 C19.8301731,33.2042857 22.3664423,30.6644643 25.4970577,30.6644643 C28.6257115,30.6644643 31.1639423,33.2042857 31.1639423,36.3392857 C31.1659038,37.8458929 30.5695962,39.2896429 29.5064423,40.35625 C28.4432885,41.4208929 27.0015577,42.0180357 25.4970577,42.0141071" id="Fill-5"></path>
                    <path d="M25.4970577,45.3262857 C17.8235192,45.3262857 11.5485577,38.137 11.5485577,36.3396786 C11.5485577,34.5423571 17.8235192,27.3530714 25.4970577,27.3530714 C33.1686346,27.3530714 39.4455577,34.5423571 39.4455577,36.3396786 C39.4455577,38.137 33.1686346,45.3262857 25.4970577,45.3262857 M25.4970577,25.55575 C16.8662885,25.55575 9.80475,33.6446786 9.80475,36.3396786 C9.80475,39.9343214 16.8662885,47.1236071 25.4970577,47.1236071 C34.1278269,47.1236071 41.1893654,39.0346786 41.1893654,36.3396786 C41.1893654,33.6446786 34.1278269,25.55575 25.4970577,25.55575" id="Fill-7"></path>
                </g>
            </g>
        </g>
    </g>
</svg>