<?xml version="1.0" encoding="UTF-8"?>
<svg width="50px" height="55px" viewBox="0 0 50 55" version="1.1" xmlns="http://www.w3.org/2000/svg" xmlns:xlink="http://www.w3.org/1999/xlink">
    <!-- Generator: Sketch 52.2 (67145) - http://www.bohemiancoding.com/sketch -->
    <title>Modelling</title>
    <desc>Created with Sketch.</desc>
    <g id="Page-1" stroke="none" stroke-width="1" fill="none" fill-rule="evenodd" opacity="0.998511905" stroke-linecap="round" stroke-linejoin="round">
        <g id="文档中心卡片" transform="translate(-944.000000, -403.000000)" stroke="#0A6EFA" stroke-width="1.83333333">
            <g id="Group-Copy" transform="translate(899.000000, 350.000000)">
                <g id="Modelling" transform="translate(45.000000, 53.000000)">
                    <path d="M48.4851852,38.8499833 L48.4851852,16.14965 C48.4851852,14.7618167 47.7388889,13.4803167 46.5240741,12.7873167 L26.6685185,1.43715 C25.4537037,0.742316667 23.9574074,0.742316667 22.7444444,1.43715 L2.88703704,12.7873167 C1.67407407,13.4803167 0.925925926,14.7618167 0.925925926,16.14965 L0.925925926,38.8499833 C0.925925926,40.2378167 1.67407407,41.5193167 2.88703704,42.2123167 L22.7444444,53.5624833 C23.9574074,54.2573167 25.4537037,54.2573167 26.6685185,53.5624833 L46.5240741,42.2123167 C47.7388889,41.5193167 48.4851852,40.2378167 48.4851852,38.8499833 Z" id="Stroke-1"></path>
                    <path d="M36.4733333,33.1164167 L36.4733333,21.8835833 C36.4733333,21.1979167 36.1048148,20.56175 35.5048148,20.2189167 L25.6751852,14.6015833 C25.0751852,14.25875 24.3362963,14.25875 23.7362963,14.6015833 L13.9085185,20.2189167 C13.3085185,20.56175 12.9381481,21.1979167 12.9381481,21.8835833 L12.9381481,33.1164167 C12.9381481,33.8039167 13.3085185,34.43825 13.9085185,34.7810833 L23.7362963,40.3984167 C24.3362963,40.74125 25.0751852,40.74125 25.6751852,40.3984167 L35.5048148,34.7810833 C36.1048148,34.43825 36.4733333,33.8039167 36.4733333,33.1164167 Z" id="Stroke-3"></path>
                    <path d="M1.59481481,14.39185 L13.18,20.9625167" id="Stroke-5"></path>
                    <path d="M47.7581481,13.9074833 L36.1933333,20.8924833" id="Stroke-7"></path>
                    <path d="M24.7059259,54.0833333 L24.7059259,40.656" id="Stroke-9"></path>
                    <path d="M24.7059259,27.5 L35.4651852,33.6655" id="Stroke-11"></path>
                    <path d="M24.7059259,14.3443667 L24.7059259,27.5003667" id="Stroke-13"></path>
                    <path d="M13.1416667,33.9747833 L24.7064815,27.49945" id="Stroke-15"></path>
                </g>
            </g>
        </g>
    </g>
</svg>