<?xml version="1.0" encoding="UTF-8"?>
<svg width="55px" height="55px" viewBox="0 0 55 55" version="1.1" xmlns="http://www.w3.org/2000/svg" xmlns:xlink="http://www.w3.org/1999/xlink">
    <!-- Generator: Sketch 52.2 (67145) - http://www.bohemiancoding.com/sketch -->
    <title>Event</title>
    <desc>Created with Sketch.</desc>
    <g id="Page-1" stroke="none" stroke-width="1" fill="none" fill-rule="evenodd" stroke-linecap="round">
        <g id="文档中心卡片" transform="translate(-942.000000, -913.000000)" stroke="#0A6EFA" stroke-width="1.96428571">
            <g id="Group-Copy-4" transform="translate(899.000000, 860.000000)">
                <g id="Event" transform="translate(43.000000, 53.000000)">
                    <path d="M18.8573393,54.0176607 L8.05376786,54.0176607 C4.14876786,54.0176607 0.982339286,50.939625 0.982339286,47.1426607 L0.982339286,7.85694643 C0.982339286,4.05998214 4.14876786,0.981946429 8.05376786,0.981946429 L39.0894821,0.981946429 C42.9944821,0.981946429 46.1609107,4.05998214 46.1609107,7.85694643 L46.1609107,28.6449821" id="Stroke-1"></path>
                    <path d="M7.75441071,12.7676607 L29.3615536,12.7676607" id="Stroke-3"></path>
                    <path d="M7.75441071,24.553375 L29.3615536,24.553375" id="Stroke-5"></path>
                    <path d="M7.75441071,36.3390893 L21.5044107,36.3390893" id="Stroke-7"></path>
                    <path d="M28.6039286,49.7909107 L39.0048214,32.7193036 C39.91625,31.2225179 42.1732143,31.2225179 43.0846429,32.7193036 L53.4855357,49.7909107 C54.4067857,51.3034107 53.2714286,53.202875 51.4446429,53.202875 L30.6428571,53.202875 C28.8180357,53.202875 27.6826786,51.3034107 28.6039286,49.7909107 Z" id="Stroke-9"></path>
                    <path d="M41.1472679,36.3390893 L41.1472679,44.1962321" id="Stroke-11"></path>
                    <path d="M41.1472679,50.0890893 L41.1472679,48.1248036" id="Stroke-13"></path>
                </g>
            </g>
        </g>
    </g>
</svg>