<?xml version="1.0" encoding="UTF-8"?>
<svg width="48px" height="55px" viewBox="0 0 48 55" version="1.1" xmlns="http://www.w3.org/2000/svg" xmlns:xlink="http://www.w3.org/1999/xlink">
    <!-- Generator: Sketch 52.2 (67145) - http://www.bohemiancoding.com/sketch -->
    <title>DataIde</title>
    <desc>Created with Sketch.</desc>
    <g id="Page-1" stroke="none" stroke-width="1" fill="none" fill-rule="evenodd">
        <g id="文档中心卡片" transform="translate(-455.000000, -1423.000000)" stroke="#0A6EFA" stroke-width="1.83333333">
            <g id="Group-Copy-7" transform="translate(409.000000, 1370.000000)">
                <g id="DataIde" transform="translate(46.000000, 53.000000)">
                    <polygon id="Stroke-1" points="45.2307692 39.8409 24 52.2379 2.76923077 39.8409 2.76923077 15.0487333 24 2.65173333 45.2307692 15.0487333"></polygon>
                    <path d="M26.0047385,2.76246667 C26.0047385,3.7818 25.1776615,4.60863333 24.1585846,4.60863333 C23.1395077,4.60863333 22.3124308,3.7818 22.3124308,2.76246667 C22.3124308,1.74313333 23.1395077,0.9163 24.1585846,0.9163 C25.1776615,0.9163 26.0047385,1.74313333 26.0047385,2.76246667 Z" id="Stroke-3"></path>
                    <path d="M4.61538462,15.6836167 C4.61538462,16.70295 3.78830769,17.5297833 2.76923077,17.5297833 C1.75015385,17.5297833 0.923076923,16.70295 0.923076923,15.6836167 C0.923076923,14.66245 1.75015385,13.83745 2.76923077,13.83745 C3.78830769,13.83745 4.61538462,14.66245 4.61538462,15.6836167 Z" id="Stroke-5"></path>
                    <path d="M4.61538462,39.8178 C4.61538462,40.8371333 3.78830769,41.6639667 2.76923077,41.6639667 C1.75015385,41.6639667 0.923076923,40.8371333 0.923076923,39.8178 C0.923076923,38.7984667 1.75015385,37.9716333 2.76923077,37.9716333 C3.78830769,37.9716333 4.61538462,38.7984667 4.61538462,39.8178 Z" id="Stroke-7"></path>
                    <path d="M47.0769231,15.6836167 C47.0769231,16.70295 46.2498462,17.5297833 45.2307692,17.5297833 C44.2116923,17.5297833 43.3846154,16.70295 43.3846154,15.6836167 C43.3846154,14.66245 44.2116923,13.83745 45.2307692,13.83745 C46.2498462,13.83745 47.0769231,14.66245 47.0769231,15.6836167 Z" id="Stroke-9"></path>
                    <path d="M47.0769231,39.8178 C47.0769231,40.8371333 46.2498462,41.6639667 45.2307692,41.6639667 C44.2116923,41.6639667 43.3846154,40.8371333 43.3846154,39.8178 C43.3846154,38.7984667 44.2116923,37.9716333 45.2307692,37.9716333 C46.2498462,37.9716333 47.0769231,38.7984667 47.0769231,39.8178 Z" id="Stroke-11"></path>
                    <path d="M25.8461538,52.2375333 C25.8461538,53.2568667 25.0190769,54.0837 24,54.0837 C22.9809231,54.0837 22.1538462,53.2568667 22.1538462,52.2375333 C22.1538462,51.2182 22.9809231,50.3913667 24,50.3913667 C25.0190769,50.3913667 25.8461538,51.2182 25.8461538,52.2375333 Z" id="Stroke-13"></path>
                    <path d="M2.76923077,15.6836167 L45.2307692,15.6836167" id="Stroke-15"></path>
                    <path d="M24.1585846,3.21915 L24.1585846,16.1404833" id="Stroke-17"></path>
                    <path d="M2.46184615,39.8178 L44.9233846,39.8178" id="Stroke-19"></path>
                    <path d="M24.1585846,39.3163833 L24.1585846,52.2377167" id="Stroke-21"></path>
                    <path d="M10.1538462,21.0833333 L10.1538462,35.75" id="Stroke-23" stroke-linecap="round"></path>
                    <polyline id="Stroke-25" stroke-linecap="round" stroke-linejoin="round" points="39.6923077 21.0833333 32.3076923 21.0833333 32.3076923 35.75 39.6923077 35.75"></polyline>
                    <path d="M17.5384615,35.75 L17.5384615,21.0833333 L20.3076923,21.0833333 C24.3858462,21.0833333 26.7692308,24.3668333 26.7692308,28.4166667 C26.7692308,32.4665 24.3858462,35.75 20.3076923,35.75 L17.5384615,35.75 Z" id="Stroke-27" stroke-linecap="round" stroke-linejoin="round"></path>
                    <path d="M32.3076923,28.4166667 L37.8461538,28.4166667" id="Stroke-29" stroke-linecap="round"></path>
                    <path d="M8.30769231,21.0833333 L12,21.0833333" id="Stroke-31" stroke-linecap="round" stroke-linejoin="round"></path>
                    <path d="M8.30769231,35.75 L12,35.75" id="Stroke-33" stroke-linecap="round" stroke-linejoin="round"></path>
                </g>
            </g>
        </g>
    </g>
</svg>